# xmcd
#
# Track frame offsets: 
#        150
#        39920
#        76353
#
# Disc length: 1516 seconds
#
# Revision: 0
# Processed by: cddbd v1.5.2PL0 Copyright (c) Steve Scherf et al.
# Submitted via: ExactAudioCopy v0.95b4
#
DISCID=1605ea03
DTITLE=Gary Moore - To The Stormy Blues [CD2]
DYEAR=2001
DGENRE=Blues
TTITLE0=The Blues Is Alright
TTITLE1=Enough Of The Blues
TTITLE2=The Prophet
EXTD=
EXTT0=
EXTT1=
EXTT2=
PLAYORDER=
